<?xml version="1.0" encoding="UTF-8" standalone="no"?>
<svg
   width="24"
   height="21.200001"
   version="1.1"
   id="svg1"
   sodipodi:docname="bluesky.svg"
   inkscape:version="1.3.2 (091e20ef0f, 2023-11-25, custom)"
   xmlns:inkscape="http://www.inkscape.org/namespaces/inkscape"
   xmlns:sodipodi="http://sodipodi.sourceforge.net/DTD/sodipodi-0.dtd"
   xmlns="http://www.w3.org/2000/svg"
   xmlns:svg="http://www.w3.org/2000/svg">
  <defs
     id="defs1" />
  <sodipodi:namedview
     id="namedview1"
     pagecolor="#505050"
     bordercolor="#ffffff"
     borderopacity="1"
     inkscape:showpageshadow="0"
     inkscape:pageopacity="0"
     inkscape:pagecheckerboard="1"
     inkscape:deskcolor="#d1d1d1"
     inkscape:zoom="23.366038"
     inkscape:cx="4.3011144"
     inkscape:cy="11.041667"
     inkscape:window-width="1920"
     inkscape:window-height="1002"
     inkscape:window-x="0"
     inkscape:window-y="0"
     inkscape:window-maximized="1"
     inkscape:current-layer="svg1" />
  <path
     d="m 5.7455023,2.1876606 c 2.531674,1.90062 5.2547767,5.754288 6.2545617,7.8223904 0.999862,-2.0679504 3.722813,-5.9218084 6.254562,-7.8223904 1.826722,-1.37141236 4.786484,-2.43253306 4.786484,0.944009 0,0.674341 -0.386627,5.664818 -0.613387,6.475002 -0.788217,2.8167614 -3.660449,3.5351914 -6.215347,3.1003644 4.465912,0.760081 5.601998,3.277744 3.148487,5.795407 -4.659702,4.781534 -6.697346,-1.199705 -7.219702,-2.732317 -0.09571,-0.280964 -0.155634,0.972092 -0.156292,1.083858 -6.63e-4,-0.111769 -0.03032,-1.364824 -0.126031,-1.083858 -0.522127,1.532612 -2.5597327,7.514003 -7.2197017,2.732317 -2.453548,-2.517663 -1.317501,-5.035479 3.148488,-5.795407 -2.554974,0.434827 -5.427245,-0.283607 -6.2153474,-3.1003644 -0.2267678,-0.81026 -0.6133872,-5.800737 -0.6133872,-6.475002 0,-3.37654206 2.9598376,-2.31542136 4.7864836,-0.944009 z"
     fill="#1185fe"
     id="path1"
     style="fill:none;stroke:#000000;stroke-width:1.5;stroke-dasharray:none;stroke-linecap:square;stroke-linejoin:miter;paint-order:normal"
     sodipodi:nodetypes="cccsccsccccccscc" />
</svg>
